<svg width="1442" height="383" viewBox="0 0 1442 383" fill="none" xmlns="http://www.w3.org/2000/svg">
  <g style="mix-blend-mode:screen" opacity="0.15">
    <mask id="mask0_1_1551" style="mask-type:alpha" maskUnits="userSpaceOnUse" x="-59" y="48" width="1967" height="286">
      <path d="M129.999 127.464C189.989 163.069 345.508 234.28 487.668 234.28C665.368 234.28 722.837 110.341 938.345 110.341C1153.85 110.341 1372.39 234.28 1513.79 234.28C1655.19 234.28 1714.93 75.2795 1907 75.2795" stroke="white" stroke-width="2" stroke-linecap="round" />
      <path d="M-57.2049 332.285C-3.58424 290.419 137.753 202.092 274.139 183.719C444.62 160.752 513.441 272.07 720.196 244.217C926.95 216.364 1122.92 69.3743 1258.58 51.0987C1394.24 32.8231 1469.11 177.44 1653.37 152.617" stroke="white" stroke-width="2" stroke-linecap="round" />
    </mask>
    <g mask="url(#mask0_1_1551)">
      <rect x="166" y="50.105" width="1110" height="320" fill="#C4C4C4" />
    </g>
  </g>
</svg>